<?xml version="1.0" encoding="UTF-8" standalone="no"?>
<!-- Created with Inkscape (http://www.inkscape.org/) -->
<svg xmlns:dc="http://purl.org/dc/elements/1.1/" xmlns:cc="http://creativecommons.org/ns#" xmlns:rdf="http://www.w3.org/1999/02/22-rdf-syntax-ns#" xmlns:svg="http://www.w3.org/2000/svg" xmlns="http://www.w3.org/2000/svg" xmlns:sodipodi="http://sodipodi.sourceforge.net/DTD/sodipodi-0.dtd" xmlns:inkscape="http://www.inkscape.org/namespaces/inkscape" width="744.09448819" height="1052.3622047" id="svg2" sodipodi:version="0.32" inkscape:version="0.46" sodipodi:docname="habanero.svg" inkscape:output_extension="org.inkscape.output.svg.inkscape" inkscape:export-filename="/home/ginger/art/dailyillustration/habanero.png" inkscape:export-xdpi="72" inkscape:export-ydpi="72">
  <defs id="defs4">
    <inkscape:perspective sodipodi:type="inkscape:persp3d" inkscape:vp_x="0 : 526.18109 : 1" inkscape:vp_y="0 : 1000 : 0" inkscape:vp_z="744.09448 : 526.18109 : 1" inkscape:persp3d-origin="372.04724 : 350.78739 : 1" id="perspective10"/>
    <inkscape:perspective id="perspective2450" inkscape:persp3d-origin="372.04724 : 350.78739 : 1" inkscape:vp_z="744.09448 : 526.18109 : 1" inkscape:vp_y="0 : 1000 : 0" inkscape:vp_x="0 : 526.18109 : 1" sodipodi:type="inkscape:persp3d"/>
  </defs>
  <sodipodi:namedview id="base" pagecolor="#ffffff" bordercolor="#666666" borderopacity="1.0" gridtolerance="10000" guidetolerance="10" objecttolerance="10" inkscape:pageopacity="0.0" inkscape:pageshadow="2" inkscape:zoom="0.49497475" inkscape:cx="632.77221" inkscape:cy="502.87785" inkscape:document-units="px" inkscape:current-layer="layer1" showgrid="false" inkscape:window-width="1280" inkscape:window-height="746" inkscape:window-x="0" inkscape:window-y="32"/>
  <metadata id="metadata7">
    <rdf:RDF>
      <cc:Work rdf:about="">
        <dc:format>image/svg+xml</dc:format>
        <dc:type rdf:resource="http://purl.org/dc/dcmitype/StillImage"/>
      </cc:Work>
    </rdf:RDF>
  </metadata>
  <g inkscape:label="Layer 1" inkscape:groupmode="layer" id="layer1">
    <path style="fill:#ee7310;fill-opacity:1;fill-rule:evenodd;stroke:none;stroke-width:1px;stroke-linecap:butt;stroke-linejoin:miter;stroke-opacity:1" d="M 59.326477,987.62045 L 57.81272,954.84603 L 58.391689,923.16627 L 51.790743,879.73536 L 41.713147,853.14249 L 27.450392,824.36061 L 22.749307,792.58426 L 22.909071,726.03741 L 27.061115,672.23959 L 29.925693,631.09446 L 35.075895,580.48392 L 46.504294,533.15722 L 56.645212,498.48319 L 65.787693,460.62172 L 94.054073,416.77179 L 113.66021,384.38338 L 138.73927,341.53151 L 177.75839,287.31445 L 212.20624,252.02813 L 247.55581,225.20914 L 291.0831,213.32841 L 323.76097,217.0946 L 350.06449,222.85705 L 339.60084,217.384 L 364.29413,195.6521 L 400.35221,187.8602 L 426.65543,193.62258 L 444.49157,200.28657 L 481.51468,139.69512 L 515.35045,80.101706 L 542.61872,33.06446 L 568.30985,14.519686 L 597.8004,19.28394 L 615.44366,36.507961 L 628.51537,72.662551 L 632.31478,95.971593 L 627.84,109.62232 L 619.56577,99.964058 L 611.29131,90.305637 L 603.11358,75.367349 L 591.74852,61.427172 L 579.09596,60.139645 L 568.34299,70.506546 L 551.02246,93.429625 L 538.78909,127.00921 L 529.54989,170.15052 L 520.40742,208.01198 L 520.11776,223.85182 L 541.04481,234.79776 L 569.24786,252.21467 L 606.53039,293.03715 L 636.53656,327.38849 L 656.98108,364.73421 L 659.10691,421.81571 L 657.53011,450.30838 L 651.57465,487.17158 L 652.99201,525.22595 L 653.31474,565.37306 L 636.50984,617.8832 L 623.18191,653.55546 L 600.292,692.22195 L 575.4058,724.51387 L 566.45623,751.81536 L 551.64762,810.7001 L 523.09189,870.39004 L 497.01469,910.05459 L 458.38166,943.15185 L 413.47013,972.96508 L 369.6535,1000.6858 L 329.0239,1027.4082 L 306.71296,1034.395 L 278.02738,1043.3778 L 254.71858,1047.1774 L 227.32049,1043.5076 L 191.55173,1035.4595 L 163.25221,1023.3226 L 136.94898,1017.5603 L 117.92178,1018.2689 L 93.711026,1013.601 L 73.878879,1000.5626 L 68.695251,995.18603 L 59.326477,987.62045 z" id="path2456"/>
    <path style="fill:#3e5d2e;fill-opacity:1;fill-rule:evenodd;stroke:none;stroke-width:1px;stroke-linecap:butt;stroke-linejoin:miter;stroke-opacity:1" d="M 367.90033,229.52095 L 388.11883,221.43979 L 387.41004,202.41252 L 383.41775,189.66348 L 409.62454,200.7058 L 429.55343,208.46441 L 444.39512,205.56656 L 459.71935,176.2689 L 500.12267,104.11938 L 523.01257,65.452878 L 539.43139,34.062542 L 552.37327,19.510077 L 573.58962,14.61608 L 594.70954,15.002014 L 613.44737,30.133369 L 624.52282,59.913352 L 632.41125,90.691586 L 631.12376,103.34424 L 626.74541,111.71502 L 612.28947,93.492903 L 597.93025,69.990993 L 590.75037,58.239861 L 584.37603,60.236179 L 571.53028,69.508512 L 558.49168,89.340766 L 542.16932,115.45114 L 536.31059,147.03454 L 527.16784,184.89587 L 520.21453,218.57195 L 521.01948,232.31908 L 532.481,240.97929 L 554.50261,249.83254 L 567.05869,256.40003 L 546.8405,264.48135 L 537.18211,272.75561 L 549.83463,274.04312 L 560.29828,279.51617 L 554.82533,289.97961 L 547.35611,294.06847 L 545.07049,303.53382 L 542.78487,312.9992 L 539.21149,335.11707 L 529.8427,327.5515 L 519.57225,311.51862 L 505.01985,298.57651 L 498.64521,300.57266 L 480.71261,299.18863 L 458.59484,295.61554 L 445.94203,294.32784 L 439.66413,291.04418 L 408.27372,274.62533 L 403.18686,263.96899 L 385.44716,252.02497 L 376.07838,244.45938 L 367.90033,229.52095 z" id="path2458"/>
    <path style="fill:#2c451f;fill-opacity:1;fill-rule:evenodd;stroke:none;stroke-width:1px;stroke-linecap:butt;stroke-linejoin:miter;stroke-opacity:1" d="M 531.28995,248.35197 L 531.09707,258.91195 L 519.34594,266.09157 L 501.50979,259.42752 L 476.10825,262.13248 L 465.03251,232.35233 L 475.78552,221.98541 L 488.82414,202.15311 L 496.58271,182.22428 L 502.24851,161.20087 L 507.81788,145.45741 L 510.20024,130.71224 L 510.48958,114.87226 L 514.15943,87.474394 L 518.53777,79.103639 L 531.47965,64.551175 L 544.6147,39.438897 L 558.45858,33.353875 L 572.10925,37.828729 L 583.66721,41.208906 L 599.60353,36.218361 L 615.5401,31.227969 L 619.53238,43.977013 L 629.41708,81.129838 L 627.03473,95.875045 L 624.55622,115.90039 L 615.47678,92.494852 L 606.20444,79.649259 L 592.74666,64.614468 L 573.71947,65.323135 L 551.02246,93.429625 L 537.69451,129.10189 L 528.45531,172.24322 L 522.50014,209.10658 L 531.28995,248.35197 z" id="path2460"/>
    <path style="fill:none;fill-rule:evenodd;stroke:none;stroke-width:1px;stroke-linecap:butt;stroke-linejoin:miter;stroke-opacity:1" d="M 413.32749,229.29481 L 407.33891,210.17116 L 397.97014,202.60558 L 387.50646,197.13253 L 389.40633,208.78709 L 381.74421,223.43594 L 367.90033,229.52095 L 376.17481,239.17938 L 395.202,238.47077 L 413.32749,229.29481 z" id="path2462"/>
    <path style="fill:#dd7018;fill-opacity:1;fill-rule:evenodd;stroke:none;stroke-width:1px;stroke-linecap:butt;stroke-linejoin:miter;stroke-opacity:1" d="M 372.3121,277.13724 L 300.87105,255.76109 L 259.4365,268.7364 L 191.63537,337.21634 L 156.09293,374.5953 L 110.89208,420.24853 L 106.32085,439.17925 L 98.272645,474.94789 L 86.232189,497.96748 L 76.284462,522.08166 L 60.863784,556.6593 L 60.18839,593.61908 L 71.070937,633.95907 L 86.235395,671.20826 L 106.10094,740.23382 L 113.98936,771.01202 L 133.11299,765.0234 L 151.52809,740.00766 L 173.74258,738.30093 L 219.26589,732.79463 L 260.70045,719.81928 L 297.14459,690.9076 L 333.39586,672.55589 L 349.23569,672.84532 L 362.50061,698.44009 L 391.50867,729.60412 L 402.87371,743.5443 L 451.00567,768.71988 L 470.22573,757.45128 L 481.75055,704.84457 L 478.33696,660.41561 L 490.76349,616.2762 L 510.85215,557.48797 L 518.70713,532.27918 L 523.24527,457.36154 L 519.63879,423.49255 L 521.31232,389.72008 L 524.36974,338.01497 L 538.92216,350.95707 L 566.35339,410.61371 L 568.76856,451.85526 L 579.94075,476.35543 L 599.77317,489.39407 L 618.89679,483.40543 L 640.11316,478.51141 L 651.76754,476.61163 L 655.18117,521.04059 L 651.31844,558.99845 L 630.13522,619.87936 L 604.7668,678.57123 L 585.25711,705.67965 L 571.41353,711.7648 L 570.8979,682.17771 L 560.91676,650.30487 L 539.7004,655.1989 L 516.42474,714.98533 L 497.52711,766.40089 L 494.56609,812.82604 L 472.1921,881.07978 L 477.89104,916.04325 L 472.4181,926.5067 L 424.22312,962.59815 L 386.68439,993.60253 L 375.60865,963.82235 L 372.80741,943.70064 L 370.19906,913.01894 L 349.17559,907.35302 L 314.40498,902.49221 L 314.6946,886.65241 L 289.87177,857.67742 L 268.55895,867.85144 L 227.02794,886.10677 L 162.47716,892.32157 L 133.3724,866.43735 L 116.82403,847.12076 L 100.56466,811.96413 L 90.294218,795.93124 L 81.021869,783.08566 L 73.842279,771.33471 L 62.6701,746.83454 L 59.868831,726.71282 L 44.028978,726.4234 L 29.606459,764.18832 L 23.231805,766.1845 L 25.098255,721.85203 L 25.354476,650.02516 L 31.695703,592.04196 L 51.880804,527.97376 L 62.214604,482.73976 L 66.785821,463.80904 L 94.955775,425.23906 L 119.74524,398.22701 L 145.53283,374.40223 L 173.60632,341.11227 L 205.96146,304.73136 L 255.44422,255.98737 L 286.22224,248.09898 L 323.08557,254.05435 L 348.29449,261.90954 L 372.3121,277.13724 z" id="path2464"/>
    <path style="fill:#c8691c;fill-opacity:1;fill-rule:evenodd;stroke:none;stroke-width:1px;stroke-linecap:butt;stroke-linejoin:miter;stroke-opacity:1" d="M 114.79431,784.75916 L 149.27558,805.4599 L 191.32223,816.79167 L 236.84582,811.28551 L 258.06219,806.3915 L 257.4501,782.08439 L 258.93045,758.87176 L 280.43644,738.13791 L 294.56965,716.21292 L 316.88061,709.22619 L 366.01038,737.58893 L 391.83139,769.7512 L 406.32045,843.96017 L 388.09853,858.41609 L 342.96101,842.80244 L 290.16107,841.83746 L 228.31541,873.45412 L 193.44835,873.87333 L 169.2376,869.20542 L 129.57301,843.12831 L 116.21165,822.81353 L 102.94705,797.21891 L 114.79431,784.75916 z" id="path2466"/>
    <path style="opacity:0.1896552;fill:#496b34;fill-opacity:1;fill-rule:evenodd;stroke:none;stroke-width:1px;stroke-linecap:butt;stroke-linejoin:miter;stroke-opacity:1" d="M 124.06026,451.12312 L 130.8541,483.99405 L 139.74064,517.95956 L 159.99198,565.86512 L 182.81853,588.46553 L 193.37865,588.65855 L 224.2531,575.49016 L 268.10315,603.7565 L 291.735,640.10415 L 307.18907,661.51355 L 325.31455,652.33762 L 347.4326,655.91092 L 336.04838,672.41483 L 294.80671,694.11591 L 262.63307,718.52164 L 243.60391,727.77677 L 186.39513,739.58844 L 154.1477,739.06353 L 148.0106,744.86097 L 135.45253,764.69704 L 113.61667,770.71483 L 108.43502,748.22044 L 95.506067,703.31473 L 80.200503,657.69858 L 61.043487,604.84301 L 60.763261,555.27695 L 79.471774,521.08359 L 89.419517,496.96936 L 124.06026,451.12312 z" id="path2468" sodipodi:nodetypes="ccccccccccccccccccccccccccccc"/>
    <path style="fill:none;fill-rule:evenodd;stroke:none;stroke-width:1px;stroke-linecap:butt;stroke-linejoin:miter;stroke-opacity:1" d="M 563.58204,273.23807 L 587.21358,309.58557 L 615.45006,382.98954 L 617.06028,410.48395 L 638.50294,451.01699 L 652.05717,460.77182 L 655.0182,414.34665 L 656.98108,364.73421 L 629.26051,320.91751 L 606.72328,282.47715 L 584.79841,268.34408 L 563.58204,273.23807 z" id="path2470"/>
    <path style="fill:#ffbd86;fill-opacity:1;fill-rule:evenodd;stroke:none;stroke-width:1px;stroke-linecap:butt;stroke-linejoin:miter;stroke-opacity:1" d="M 93.51494,850.9202 L 114.15233,877.70597 L 140.97119,913.0554 L 154.10624,887.94314 L 140.55201,878.1883 L 121.91089,857.77714 L 93.51494,850.9202 z" id="path2472"/>
    <path style="fill:#ffbd86;fill-opacity:1;fill-rule:evenodd;stroke:none;stroke-width:1px;stroke-linecap:butt;stroke-linejoin:miter;stroke-opacity:1" d="M 234.14421,959.1246 L 245.9918,946.665 L 266.30646,933.30368 L 286.62112,919.94239 L 273.96856,918.65486 L 256.03595,917.27083 L 243.09381,931.82309 L 234.43383,943.2848 L 234.14421,959.1246 z" id="path2474"/>
    <path style="fill:#ffbd86;fill-opacity:1;fill-rule:evenodd;stroke:none;stroke-width:1px;stroke-linecap:butt;stroke-linejoin:miter;stroke-opacity:1" d="M 264.55676,335.37982 L 277.69182,310.26754 L 311.46428,311.94103 L 336.67322,319.7962 L 331.20026,330.25967 L 320.35083,345.90656 L 348.65034,358.0435 L 369.67382,363.70944 L 381.74739,396.67673 L 362.62378,402.66541 L 333.03649,403.18096 L 314.29894,388.04981 L 293.85443,350.70405 L 280.30018,340.94925 L 264.55676,335.37982 z" id="path2476"/>
    <path style="fill:#ffbd86;fill-opacity:1;fill-rule:evenodd;stroke:none;stroke-width:1px;stroke-linecap:butt;stroke-linejoin:miter;stroke-opacity:1" d="M 437.02584,377.61639 L 439.63422,408.29809 L 472.11888,422.62409 L 487.95903,422.91368 L 480.77913,411.16258 L 466.13032,403.50046 L 457.95257,388.56218 L 454.05673,370.53312 L 437.02584,377.61639 z" id="path2478"/>
  </g>
</svg>